<?xml version="1.0" standalone="no"?>
<!DOCTYPE svg PUBLIC "-//W3C//DTD SVG 20010904//EN"
 "http://www.w3.org/TR/2001/REC-SVG-20010904/DTD/svg10.dtd">
<svg version="1.0" xmlns="http://www.w3.org/2000/svg"
 width="500.000000pt" height="500.000000pt" viewBox="0 0 500.000000 500.000000"
 preserveAspectRatio="xMidYMid meet">
<metadata>
Created by potrace 1.16, written by Peter Selinger 2001-2019
</metadata>
<g transform="translate(0.000000,500.000000) scale(0.100000,-0.100000)"
fill="#000000" stroke="none">
<path d="M2140 4980 c-519 -80 -988 -314 -1355 -675 -574 -566 -831 -1357
-699 -2150 126 -753 612 -1417 1294 -1764 388 -198 768 -282 1204 -268 369 13
662 86 991 247 739 361 1233 1044 1352 1865 21 147 23 485 4 625 -53 391 -185
745 -392 1053 -397 592 -1004 971 -1714 1072 -147 21 -536 18 -685 -5z m452
-150 c530 -82 1049 -334 1424 -692 378 -362 559 -764 489 -1091 -48 -226 -197
-330 -362 -253 -61 29 -83 64 -83 131 0 70 21 96 107 135 110 49 143 112 103
194 -26 54 -61 71 -150 71 -92 0 -177 -35 -252 -104 -83 -77 -110 -133 -116
-244 -6 -110 15 -194 68 -275 95 -147 221 -219 402 -230 168 -10 307 43 423
162 81 82 123 160 158 292 17 61 26 83 30 69 31 -102 47 -494 28 -677 -60
-549 -292 -1036 -681 -1428 -729 -735 -1863 -908 -2780 -423 -215 113 -390
243 -570 423 -203 202 -342 394 -460 634 -75 153 -100 249 -100 388 0 295 185
542 448 597 178 37 358 -15 476 -138 168 -177 181 -427 29 -579 -111 -111
-289 -151 -367 -83 -79 70 -43 175 80 233 62 29 64 32 80 84 19 68 8 110 -41
153 -40 35 -83 45 -165 39 -104 -7 -182 -86 -216 -218 -23 -90 -15 -294 16
-400 42 -148 169 -356 313 -515 278 -306 780 -597 1230 -711 78 -20 353 -64
398 -64 5 0 -1 21 -15 48 -31 61 -56 146 -56 190 0 34 0 35 38 29 20 -3 80
-15 132 -26 98 -21 273 -28 299 -12 20 13 1 41 -95 143 -91 95 -110 126 -120
186 -6 37 -4 41 45 87 88 82 114 152 185 488 27 126 73 242 112 278 13 12 24
29 24 37 0 21 -124 178 -192 244 -41 39 -89 71 -155 103 -131 64 -183 78 -283
79 -74 0 -100 -5 -195 -39 -139 -49 -229 -53 -316 -13 -73 33 -99 70 -99 140
0 113 70 159 300 197 69 11 210 34 314 51 104 17 243 47 310 66 141 41 303
116 363 168 100 88 70 178 -74 222 -66 21 -134 12 -246 -32 -104 -41 -209 -54
-295 -35 -54 11 -256 87 -320 120 -70 36 -144 104 -228 210 -46 58 -84 115
-84 127 0 11 10 29 21 40 12 10 37 50 55 88 32 66 41 99 98 370 32 151 71 235
143 307 51 53 55 59 48 90 -12 57 -32 86 -124 183 -88 92 -112 129 -94 147 25
25 264 6 393 -31 62 -18 80 -14 80 18 0 42 -28 129 -64 197 -17 33 -32 63 -34
68 -6 11 33 8 170 -13z m-133 -3105 c-19 -19 -196 -70 -332 -97 -149 -29 -367
-31 -482 -4 -99 23 -131 39 -55 29 30 -5 120 -7 200 -7 160 1 301 22 535 77
133 31 164 31 134 2z m31 -45 c0 -51 -304 -192 -554 -256 -79 -21 -124 -26
-211 -26 -161 0 -191 17 -44 25 186 9 401 77 684 216 66 33 121 60 123 60 1 1
2 -8 2 -19z m40 -47 c0 -18 -72 -96 -140 -152 -209 -171 -407 -285 -560 -321
-136 -32 -160 -24 -44 14 55 19 132 50 171 69 97 49 260 160 374 255 146 121
199 157 199 135z m192 -220 c25 -22 23 -50 -8 -90 -39 -51 -97 -77 -174 -77
-36 0 -76 6 -89 13 -23 13 -21 14 50 53 40 22 95 57 122 79 55 43 72 47 99 22z
m-342 -835 c7 -24 25 -74 42 -113 16 -38 32 -76 35 -82 7 -17 -21 -16 -114 3
-122 25 -193 73 -193 129 0 37 23 48 84 41 53 -7 53 -7 74 28 30 51 58 48 72
-6z"/>
<path d="M2500 4806 c0 -2 13 -32 29 -67 16 -36 36 -90 45 -121 10 -31 23 -59
31 -62 16 -6 51 26 60 55 5 14 15 16 70 11 62 -5 64 -4 70 21 21 80 -69 134
-267 161 -21 2 -38 3 -38 2z"/>
<path d="M3140 3880 c-162 -42 -406 -191 -598 -365 -57 -52 -104 -115 -85
-115 14 0 88 54 174 126 197 168 419 300 587 350 69 20 73 23 37 23 -22 0 -74
-9 -115 -19z"/>
<path d="M2368 3786 c-55 -20 -86 -43 -108 -79 -27 -44 -25 -64 10 -82 34 -17
35 -17 101 35 25 20 76 52 113 71 36 19 66 37 66 41 0 10 -70 28 -110 28 -19
-1 -52 -7 -72 -14z"/>
<path d="M3090 3629 c-225 -47 -578 -203 -594 -262 -6 -25 -4 -24 189 66 263
122 406 167 605 189 104 11 111 13 70 19 -78 13 -172 8 -270 -12z"/>
<path d="M2919 3425 c-180 -29 -385 -88 -399 -115 -14 -25 -16 -26 137 10 268
61 357 74 538 74 94 1 190 -3 215 -7 65 -12 42 2 -42 25 -97 26 -329 33 -449
13z"/>
</g>
</svg>
